<?xml version="1.0" standalone="no"?>
<!DOCTYPE svg PUBLIC "-//W3C//DTD SVG 20010904//EN"
 "http://www.w3.org/TR/2001/REC-SVG-20010904/DTD/svg10.dtd">
<svg version="1.0" xmlns="http://www.w3.org/2000/svg"
 width="1800.000000pt" height="60.000000pt" viewBox="0 0 1800.000000 60.000000"
 preserveAspectRatio="xMidYMid meet">
<metadata>
Created by potrace 1.15, written by Peter Selinger 2001-2017
</metadata>
<g transform="translate(0.000000,60.000000) scale(0.100000,-0.100000)"
fill="#000000" stroke="none">
<path d="M350 507 c3 -2 63 -8 135 -11 130 -7 725 -41 885 -51 47 -3 508 -30
1025 -60 517 -30 978 -57 1025 -60 47 -3 243 -14 435 -25 193 -11 379 -22 415
-25 36 -2 112 -7 170 -10 137 -7 2639 -153 2750 -160 47 -3 357 -21 690 -40
333 -19 632 -37 665 -39 127 -11 365 -21 475 -21 111 1 184 4 500 25 80 5 231
14 335 20 105 5 415 23 690 40 275 17 574 35 665 40 91 6 287 17 435 25 149 8
299 17 335 20 36 2 119 7 185 10 66 3 190 10 275 15 85 5 193 12 240 15 712
41 2307 134 2825 165 369 21 1003 58 1410 82 407 24 724 45 705 47 -19 1 -199
-2 -400 -8 -201 -6 -464 -13 -585 -16 -121 -3 -256 -8 -300 -10 -44 -2 -192
-7 -330 -11 -137 -4 -255 -10 -261 -15 -5 -5 -134 -10 -285 -13 -464 -7 -1169
-24 -1484 -35 -301 -11 -597 -21 -1210 -41 -718 -24 -905 -31 -1030 -40 -71
-4 -245 -9 -385 -9 -140 -1 -367 -6 -505 -11 -137 -5 -414 -14 -615 -20 -201
-6 -565 -16 -810 -24 -245 -7 -503 -11 -575 -9 -71 2 -321 10 -555 18 -234 8
-614 18 -845 21 -231 4 -422 10 -425 14 -3 3 -331 16 -730 29 -399 12 -795 24
-880 27 -293 9 -778 24 -1860 59 -1128 36 -1239 39 -1785 55 -383 12 -566 18
-720 25 -191 8 -700 18 -695 12z"/>
</g>
</svg>
